<?xml version="1.0" encoding="UTF-8" standalone="no"?> <svg id="Layer_1" data-name="Layer 1" xmlns="http://www.w3.org/2000/svg" width="48" height="48" viewBox="0 0 48 48"><title>Chessboard</title><rect x="20.76" y="24" width="3.24" height="3.24"/><rect x="33.72" y="24" width="3.24" height="3.24"/><rect x="11.04" y="20.76" width="3.24" height="3.24"/><rect x="33.72" y="17.52" width="3.24" height="3.24"/><rect x="33.72" y="30.48" width="3.24" height="3.24"/><rect x="24" y="20.76" width="3.24" height="3.24"/><rect x="11.04" y="33.72" width="3.24" height="3.24"/><rect x="17.52" y="33.72" width="3.24" height="3.24"/><rect x="27.24" y="11.04" width="3.24" height="3.24"/><rect x="14.28" y="11.04" width="3.24" height="3.24"/><rect x="24" y="33.72" width="3.24" height="3.24"/><rect x="11.04" y="14.28" width="3.24" height="3.24"/><rect x="11.04" y="27.24" width="3.24" height="3.24"/><rect x="20.76" y="11.04" width="3.24" height="3.24"/><rect x="30.48" y="33.72" width="3.24" height="3.24"/><rect x="14.28" y="30.48" width="3.24" height="3.24"/><rect x="27.24" y="30.48" width="3.24" height="3.24"/><rect x="20.76" y="17.52" width="3.24" height="3.24"/><rect x="30.48" y="27.24" width="3.24" height="3.24"/><rect x="14.28" y="24" width="3.24" height="3.24"/><rect x="30.48" y="20.76" width="3.24" height="3.24"/><rect x="33.72" y="11.04" width="3.24" height="3.24"/><rect x="14.28" y="17.52" width="3.24" height="3.24"/><rect x="30.48" y="14.28" width="3.24" height="3.24"/><rect x="20.76" y="30.48" width="3.24" height="3.24"/><rect x="17.52" y="27.24" width="3.24" height="3.24"/><rect x="24" y="27.24" width="3.24" height="3.24"/><rect x="17.52" y="20.76" width="3.24" height="3.24"/><rect x="24" y="14.28" width="3.24" height="3.24"/><rect x="17.52" y="14.28" width="3.24" height="3.24"/><rect x="27.24" y="17.52" width="3.24" height="3.24"/><rect x="27.24" y="24" width="3.24" height="3.24"/></svg>